<svg width="76" height="74" viewBox="0 0 76 74" fill="none" xmlns="http://www.w3.org/2000/svg">
<path d="M0.897461 0.388916H75.4482V73.8611H0.897461V0.388916Z" fill="#017ACB"/>
<path d="M36.6935 27.5966H40.2696V33.6811H30.6013V60.751L30.345 60.8199C29.9956 60.9117 25.3944 60.9117 24.4043 60.8084L23.6122 60.7395V33.6811H13.9438V27.5966L17.0074 27.5622C18.6848 27.5392 22.9948 27.5392 26.5826 27.5622C30.1703 27.5852 34.7133 27.5966 36.6935 27.5966V27.5966ZM63.9861 57.881C62.565 59.3619 61.0391 60.1885 58.4997 60.8658C57.3931 61.1643 57.2067 61.1757 54.7139 61.1643C52.2211 61.1528 52.0231 61.1528 50.8116 60.8428C47.6781 60.0507 45.1504 58.5009 43.4264 56.3082C42.9372 55.6883 42.1334 54.4025 42.1334 54.2418C42.1334 54.1959 42.2499 54.0926 42.4013 54.0237C42.5528 53.9548 42.8673 53.7596 43.1235 53.6104C43.3798 53.4612 43.8458 53.1856 44.1603 53.0249C44.4748 52.8642 45.3834 52.3361 46.1755 51.8654C46.9676 51.3948 47.6898 51.0159 47.7713 51.0159C47.8529 51.0159 48.0043 51.1766 48.1208 51.3718C48.8197 52.5313 50.4505 54.0122 51.6037 54.5173C52.3143 54.8158 53.8868 55.1487 54.644 55.1487C55.3429 55.1487 56.6242 54.8502 57.3115 54.5403C58.0454 54.2074 58.4181 53.8744 58.8608 53.2086C59.1636 52.7379 59.1986 52.6116 59.1869 51.7162C59.1869 50.8896 59.1403 50.66 58.9074 50.2812C58.255 49.225 57.3698 48.674 53.782 47.1127C50.0777 45.494 48.412 44.5297 47.0608 43.2325C46.059 42.2681 45.861 42.0041 45.2319 40.7987C44.4165 39.2489 44.3117 38.7438 44.3 36.4363C44.2884 34.8176 44.3233 34.2895 44.4981 33.7385C44.7427 32.9119 45.5348 31.3162 45.8959 30.9144C46.6414 30.0534 46.9093 29.7893 47.4335 29.3646C49.0177 28.0788 51.4872 27.2293 53.8519 27.1489C54.1198 27.1489 55.0051 27.1948 55.8321 27.2522C58.2085 27.4474 59.8276 28.0214 61.3885 29.2498C62.565 30.1682 64.3473 32.3264 64.1725 32.6134C64.056 32.7856 59.4083 35.8393 59.1054 35.9312C58.919 35.9886 58.7909 35.9197 58.5346 35.6212C56.9504 33.7499 56.3097 33.3481 54.7721 33.2563C53.6772 33.1874 53.0947 33.3137 52.3609 33.7959C51.5921 34.301 51.2193 35.0701 51.2193 36.1378C51.231 37.6991 51.8367 38.4338 54.0732 39.5244C55.5176 40.2247 56.7524 40.7987 56.8456 40.7987C56.9854 40.7987 59.979 42.2681 60.7595 42.7273C64.3939 44.8282 65.8732 46.9864 66.2576 50.706C66.5372 53.5071 65.7334 56.0671 63.9861 57.881V57.881Z" fill="#1E2235"/>
</svg>
