<svg width="76" height="54" viewBox="0 0 76 54" fill="none" xmlns="http://www.w3.org/2000/svg">
<path d="M74.5171 20.6661C74.3156 20.5079 72.4346 19.1033 68.4679 19.1033C67.4204 19.1078 66.3752 19.1967 65.3424 19.369C64.5746 14.1649 60.224 11.6276 60.029 11.5137L58.9638 10.9062L58.2632 11.906C57.3859 13.249 56.7454 14.7295 56.3695 16.2845C55.6592 19.2552 56.0911 22.0454 57.617 24.4308C55.7744 25.4463 52.8186 25.6963 52.2205 25.7184H3.28306C2.00483 25.7202 0.967607 26.7417 0.96064 28.0057C0.90356 32.2456 1.62991 36.4602 3.10392 40.4419C4.78972 44.8141 7.29773 48.0347 10.5607 50.0056C14.2171 52.2201 20.1575 53.4856 26.8912 53.4856C29.9333 53.4951 32.9696 53.2228 35.9603 52.6726C40.1177 51.9176 44.1183 50.4806 47.7964 48.4206C50.827 46.6849 53.5546 44.4769 55.8737 41.8814C59.7508 37.5408 62.0606 32.7068 63.7783 28.4107H64.4629C68.7078 28.4107 71.3182 26.7307 72.7577 25.3229C73.7144 24.4251 74.4612 23.3313 74.9458 22.1182L75.2497 21.2388L74.5171 20.6661Z" fill="#2496ED"/>
<path d="M7.81916 24.3012H14.377C14.6933 24.3012 14.9496 24.0477 14.9496 23.735V17.9581C14.9513 17.6453 14.6964 17.3904 14.3802 17.3887C14.3792 17.3887 14.378 17.3887 14.377 17.3887H7.81916C7.50287 17.3887 7.24658 17.6422 7.24658 17.9549V17.9581V23.7349C7.24658 24.0477 7.50287 24.3012 7.81916 24.3012V24.3012Z" fill="#2496ED"/>
<path d="M16.8562 24.3012H23.414C23.7303 24.3012 23.9866 24.0477 23.9866 23.735V17.9581C23.9883 17.6453 23.7334 17.3904 23.4171 17.3887C23.4161 17.3887 23.4149 17.3887 23.4139 17.3887H16.8561C16.538 17.3887 16.2803 17.6436 16.2803 17.9581V23.7349C16.2821 24.0482 16.5394 24.3012 16.8562 24.3012" fill="#2496ED"/>
<path d="M26.0307 24.3012H32.5885C32.9048 24.3012 33.1611 24.0477 33.1611 23.735V17.9581C33.1628 17.6453 32.9079 17.3904 32.5916 17.3887C32.5906 17.3887 32.5894 17.3887 32.5884 17.3887H26.0306C25.7143 17.3887 25.458 17.6422 25.458 17.9549V17.9581V23.7349C25.4581 24.0477 25.7145 24.3012 26.0307 24.3012V24.3012Z" fill="#2496ED"/>
<path d="M35.0965 24.3012H41.6543C41.9711 24.3012 42.2284 24.0483 42.2301 23.735V17.9581C42.2301 17.6436 41.9724 17.3887 41.6543 17.3887H35.0965C34.7802 17.3887 34.5239 17.6422 34.5239 17.9549V17.9581V23.7349C34.5239 24.0477 34.7803 24.3012 35.0965 24.3012V24.3012Z" fill="#2496ED"/>
<path d="M16.8561 15.9903H23.4139C23.7306 15.9886 23.9865 15.7341 23.9865 15.4209V9.64413C23.9865 9.33134 23.7301 9.07788 23.4139 9.07788H16.8561C16.5394 9.07788 16.282 9.33083 16.2803 9.64413V15.4209C16.282 15.7347 16.5387 15.9886 16.8561 15.9903Z" fill="#2496ED"/>
<path d="M26.0306 15.9903H32.5884C32.9051 15.9886 33.161 15.7341 33.161 15.4209V9.64413C33.161 9.33134 32.9046 9.07788 32.5884 9.07788H26.0306C25.7143 9.07788 25.458 9.33145 25.458 9.64413V15.4209C25.458 15.7341 25.7139 15.9886 26.0306 15.9903Z" fill="#2496ED"/>
<path d="M35.0965 15.9903H41.6543C41.9716 15.9886 42.2284 15.7347 42.2301 15.4209V9.64413C42.2284 9.33083 41.9711 9.07788 41.6543 9.07788H35.0965C34.7802 9.07788 34.5239 9.33145 34.5239 9.64413V15.4209C34.5239 15.7341 34.7798 15.9886 35.0965 15.9903Z" fill="#2496ED"/>
<path d="M35.0965 7.67649H41.6543C41.9711 7.67649 42.2284 7.42344 42.2301 7.11023V1.33017C42.2284 1.01686 41.9711 0.763916 41.6543 0.763916H35.0965C34.7802 0.763916 34.5239 1.01738 34.5239 1.33017V7.11013C34.5239 7.42292 34.7803 7.67649 35.0965 7.67649Z" fill="#2496ED"/>
<path d="M44.2423 24.3012H50.8001C51.1169 24.3012 51.3741 24.0483 51.3759 23.735V17.9581C51.3759 17.6436 51.1181 17.3887 50.8001 17.3887H44.2423C43.9261 17.3887 43.6697 17.6422 43.6697 17.9549V17.9581V23.7349C43.6697 24.0477 43.9261 24.3012 44.2423 24.3012" fill="#2496ED"/>
</svg>
