<svg width="67" height="74" viewBox="0 0 67 74" fill="none" xmlns="http://www.w3.org/2000/svg">
<path d="M33.7337 0.388916L0.90274 18.757V55.4931L33.7337 73.8611L66.5647 55.4931V18.757L33.7337 0.388916Z" fill="#1E2235"/>
<path d="M6.76584 54.2257L32.6505 68.7058V57.4278L16.5229 48.654L6.76584 54.2257ZM4.99521 52.6399V22.3571L14.4675 27.7634V47.2274L4.99521 52.6399ZM60.8073 54.2257L34.9226 68.7058V57.4278L51.0502 48.654L60.8073 54.2257V54.2257ZM62.5779 52.6399V22.3571L53.1056 27.7634V47.2274L62.5779 52.6399V52.6399ZM61.4697 20.3978L34.9226 5.54419V16.4487L51.9293 25.7001L52.0593 25.7735L61.4697 20.3978V20.3978ZM6.1034 20.3978L32.6505 5.54419V16.4487L15.6438 25.7001L15.5138 25.7735L6.1034 20.3978V20.3978Z" fill="#8ED6FB"/>
<path d="M34.9226 54.8625L50.8335 46.2111V29.0676L34.9226 38.1537V54.8625ZM32.6505 54.8625L16.7396 46.2111V29.0676L32.6505 38.1537V54.8625ZM49.7563 27.0838L33.7834 18.3958L17.8106 27.0838L33.7834 36.2066L49.7563 27.0838" fill="#1C78C0"/>
</svg>
