<svg width="75" height="74" viewBox="0 0 75 74" fill="none" xmlns="http://www.w3.org/2000/svg">
<path d="M71.8722 0.388916H36.0969C36.0969 4.62477 37.7984 8.68713 40.827 11.6823C43.8556 14.6775 47.9633 16.3602 52.2464 16.3602H58.8367V22.653C58.8425 31.4656 66.0647 38.6084 74.9757 38.6142V3.45817C74.9757 1.76355 73.5866 0.388916 71.8722 0.388916Z" fill="#2684FF"/>
<path d="M54.1708 18.0176H18.3958C18.4013 26.8302 25.6235 33.973 34.5348 33.9788H41.1251V40.2916C41.1364 49.1043 48.3636 56.2422 57.2746 56.2422V21.0874C57.2746 19.3922 55.8849 18.0179 54.1708 18.0179V18.0176Z" fill="url(#paint0_linear_8535_53)"/>
<path d="M36.4589 35.6365H0.683594C0.683594 44.4572 7.91425 51.6078 16.8331 51.6078H23.444V57.9002C23.4498 66.7049 30.6595 73.8445 39.5627 73.8612V38.706C39.5627 37.0108 38.173 35.6365 36.4589 35.6365Z" fill="url(#paint1_linear_8535_53)"/>
<defs>
<linearGradient id="paint0_linear_8535_53" x1="56.5091" y1="18.0791" x2="41.5583" y2="33.8538" gradientUnits="userSpaceOnUse">
<stop offset="0.18" stop-color="#0052CC"/>
<stop offset="1" stop-color="#2684FF"/>
</linearGradient>
<linearGradient id="paint1_linear_8535_53" x1="39.8212" y1="35.8104" x2="22.5156" y2="53.0269" gradientUnits="userSpaceOnUse">
<stop offset="0.18" stop-color="#0052CC"/>
<stop offset="1" stop-color="#2684FF"/>
</linearGradient>
</defs>
</svg>
