<svg width="75" height="74" viewBox="0 0 75 74" fill="none" xmlns="http://www.w3.org/2000/svg">
<path d="M68.5541 57.1428C64.5166 57.0417 61.3874 57.4475 58.7629 58.5633C58.0057 58.8673 56.7943 58.8676 56.6933 59.8315C57.0972 60.2373 57.1476 60.8968 57.501 61.4546C58.1073 62.4689 59.1664 63.8385 60.1254 64.5491C61.1852 65.3604 62.2455 66.1718 63.3554 66.882C65.3239 68.0995 67.5449 68.8095 69.4627 70.027C70.5735 70.7366 71.6831 71.6503 72.7936 72.411C73.3488 72.8162 73.7018 73.4763 74.4088 73.7296V73.5777C74.0552 73.1209 73.9542 72.4617 73.6012 71.9544C73.097 71.4471 72.5916 70.9905 72.0869 70.4832C70.6234 68.5054 68.8065 66.7806 66.8382 65.3604C65.2233 64.2444 61.6899 62.7228 61.034 60.8458C61.034 60.8458 60.9833 60.7954 60.9331 60.7446C62.0433 60.6432 63.3554 60.2373 64.4156 59.933C66.1315 59.4761 67.696 59.5778 69.4627 59.1213C70.27 58.9184 71.0776 58.6647 71.885 58.4111V57.9548C70.977 57.0417 70.3208 55.8244 69.3617 54.962C66.7877 52.7296 63.9611 50.5489 61.034 48.7229C59.4693 47.7083 57.4502 47.0488 55.7848 46.1867C55.1796 45.882 54.1698 45.7301 53.8168 45.2228C52.9079 44.1071 52.4032 42.6362 51.7473 41.3172C50.284 38.5271 48.8704 35.4332 47.6085 32.4915C46.7005 30.513 46.1452 28.5346 45.0348 26.7089C39.8363 18.0857 34.1835 12.8612 25.5028 7.73778C23.6351 6.67275 21.4145 6.21619 19.0424 5.65845C17.781 5.60743 16.5188 5.50627 15.2572 5.45525C14.4496 5.10014 13.642 4.13657 12.9353 3.68C10.059 1.85374 2.6393 -2.10229 0.519589 3.12227C-0.843272 6.41911 2.53864 9.66522 3.69902 11.3396C4.55769 12.5061 5.66759 13.8247 6.27331 15.1437C6.62664 16.0055 6.72731 16.9192 7.08064 17.8321C7.88855 20.0633 8.64512 22.5494 9.70541 24.6293C10.2606 25.6943 10.8661 26.8101 11.5727 27.7739C11.9766 28.3316 12.6829 28.5856 12.8347 29.4984C12.1283 30.513 12.0775 32.0349 11.6734 33.3029C9.85655 39.0347 10.5635 46.136 13.1372 50.3459C13.9445 51.6136 15.8626 54.4043 18.4367 53.3387C20.7081 52.4259 20.2033 49.5346 20.8589 46.9984C21.0109 46.389 20.91 45.9838 21.2126 45.5779V45.6797C21.9192 47.0995 22.6256 48.4695 23.2818 49.8897C24.8466 52.3748 27.5717 54.962 29.8428 56.6868C31.0546 57.5994 32.0133 59.172 33.5276 59.73V59.5776H33.4264C33.1235 59.121 32.6692 58.9184 32.2657 58.563C31.3574 57.6504 30.3476 56.5344 29.6412 55.5198C27.5218 52.6789 25.6539 49.5343 23.9885 46.2879C23.1811 44.7158 22.4742 42.991 21.8183 41.4187C21.5151 40.8094 21.5151 39.8968 21.0107 39.5927C20.2535 40.7085 19.1433 41.6724 18.5881 43.0418C17.6296 45.2228 17.5284 47.9112 17.175 50.7008C16.9731 50.7521 17.0738 50.7008 16.9728 50.8028C15.3582 50.3964 14.8029 48.7229 14.1969 47.3025C12.6826 43.7012 12.4303 37.9187 13.7429 33.7594C14.0963 32.6941 15.6106 29.3465 15.0048 28.3319C14.702 27.3681 13.6922 26.8101 13.1372 26.0494C12.4813 25.0855 11.7744 23.8686 11.3204 22.803C10.1089 19.9624 9.50321 16.8175 8.19112 13.9769C7.5854 12.658 6.52598 11.2889 5.66759 10.0713C4.70883 8.70194 3.64883 7.73778 2.89169 6.11473C2.63959 5.557 2.28597 4.64386 2.68978 4.03511C2.79073 3.62927 2.99235 3.47738 3.39645 3.37592C4.05264 2.8176 5.92026 3.52781 6.57588 3.83219C8.4435 4.59255 10.008 5.30335 11.5727 6.36838C12.2791 6.87567 13.0363 7.83953 13.9445 8.09318H15.0046C16.6198 8.448 18.4364 8.19464 19.9506 8.65092C22.6259 9.51303 25.0482 10.7813 27.2187 12.151C33.8305 16.3609 39.2808 22.3464 42.9655 29.4984C43.5712 30.6646 43.8233 31.7305 44.3786 32.9475C45.4389 35.4332 46.751 37.9694 47.8104 40.4041C48.8704 42.7878 49.8796 45.2228 51.3939 47.2013C52.1511 48.266 55.1791 48.8243 56.5419 49.3824C57.5514 49.8386 59.1162 50.2448 60.0245 50.8025C61.7404 51.8672 63.4563 53.0853 65.0715 54.2515C65.8792 54.8603 68.4024 56.1285 68.5541 57.1428V57.1428Z" fill="#14B8A6"/>
<path d="M17.0733 13.0635C16.2155 13.0635 15.6101 13.1655 15.0044 13.3174V13.4189H15.1053C15.5094 14.2305 16.2155 14.7886 16.72 15.4985C17.1241 16.3099 17.4771 17.1218 17.8812 17.9335C17.9314 17.8825 17.9819 17.8321 17.9819 17.8321C18.6889 17.3245 19.0419 16.5131 19.0419 15.2956C18.7391 14.9408 18.6886 14.5857 18.4362 14.2305C18.1336 13.723 17.4771 13.4696 17.0733 13.0635V13.0635Z" fill="#14B8A6"/>
</svg>
