<svg width="75" height="72" viewBox="0 0 75 72" fill="none" xmlns="http://www.w3.org/2000/svg">
<path d="M37.5557 0.295654C17.043 0.295654 0.409424 16.7428 0.409424 37.0319C0.409424 53.2632 11.0529 67.0334 25.8124 71.8911C27.6688 72.231 28.3505 71.0941 28.3505 70.1238C28.3505 69.2479 28.3158 66.3538 28.3001 63.2842C17.9657 65.5064 15.785 58.9498 15.785 58.9498C14.0953 54.7035 11.6607 53.5747 11.6607 53.5747C8.29053 51.2945 11.9147 51.3412 11.9147 51.3412C15.6449 51.6005 17.6091 55.127 17.6091 55.127C20.9221 60.7433 26.2989 59.1195 28.4186 58.1811C28.7519 55.8064 29.7148 54.186 30.777 53.2687C22.5265 52.3395 13.8529 49.1895 13.8529 35.1133C13.8529 31.1028 15.3041 27.8254 17.6804 25.2528C17.2947 24.3274 16.0234 20.5911 18.0402 15.5309C18.0402 15.5309 21.1595 14.5436 28.2581 19.2966C31.221 18.4824 34.3988 18.0744 37.5557 18.0606C40.7126 18.0744 43.8927 18.4824 46.8614 19.2966C53.9515 14.5436 57.0665 15.5309 57.0665 15.5309C59.0883 20.5911 57.8163 24.3274 57.4306 25.2528C59.8123 27.8254 61.2535 31.1025 61.2535 35.1133C61.2535 49.223 52.5636 52.33 44.2921 53.2393C45.6244 54.3794 46.8116 56.6152 46.8116 60.0423C46.8116 64.9576 46.7685 68.9137 46.7685 70.1238C46.7685 71.1013 47.4371 72.2469 49.3202 71.8862C64.0715 67.0231 74.7016 53.2577 74.7016 37.0319C74.7016 16.7428 58.0704 0.295654 37.5557 0.295654Z" fill="white"/>
<path d="M14.3218 52.6273C14.2402 52.8097 13.9495 52.8645 13.6853 52.7394C13.4158 52.6196 13.2643 52.3706 13.3517 52.1874C13.4318 51.9995 13.7225 51.9471 13.9914 52.0733C14.2615 52.1929 14.4153 52.4441 14.3218 52.6273V52.6273ZM16.1491 54.2396C15.9719 54.4021 15.6255 54.3267 15.3904 54.0699C15.1475 53.8138 15.102 53.4715 15.2818 53.3064C15.4644 53.1442 15.8003 53.22 16.0439 53.4764C16.2869 53.7354 16.3341 54.0757 16.1488 54.2399L16.1491 54.2396ZM17.4027 56.3026C17.1748 56.459 16.8025 56.3123 16.5727 55.9856C16.3451 55.6592 16.3451 55.2674 16.5776 55.1103C16.8083 54.9533 17.1748 55.0945 17.4079 55.4186C17.6351 55.7508 17.6351 56.1427 17.4024 56.3028L17.4027 56.3026ZM19.5224 58.6919C19.3188 58.9138 18.8852 58.8544 18.5677 58.5513C18.2432 58.2551 18.1525 57.8348 18.3568 57.6126C18.5627 57.3902 18.9989 57.4527 19.3188 57.7532C19.6413 58.0488 19.7397 58.4724 19.5227 58.6919H19.5224ZM22.2621 59.4986C22.1726 59.7862 21.7549 59.917 21.3342 59.7948C20.9141 59.6689 20.6391 59.3318 20.7238 59.0411C20.8112 58.7515 21.2308 58.6153 21.6547 58.7461C22.0742 58.8714 22.3498 59.2059 22.2624 59.4986H22.2621ZM25.3805 59.8406C25.391 60.1437 25.0341 60.395 24.5924 60.4004C24.1482 60.4099 23.789 60.1648 23.7843 59.8668C23.7843 59.5609 24.133 59.3119 24.577 59.3047C25.0187 59.2961 25.3805 59.5395 25.3805 59.8406V59.8406ZM28.4436 59.7245C28.4966 60.0201 28.1895 60.3238 27.7511 60.4045C27.3199 60.4823 26.9208 60.2999 26.8657 60.0069C26.8121 59.7038 27.125 59.4004 27.5553 59.3217C27.9946 59.2462 28.3876 59.424 28.4436 59.7245" fill="white"/>
</svg>
