<svg width="73" height="74" viewBox="0 0 73 74" fill="none" xmlns="http://www.w3.org/2000/svg">
<path d="M72.2524 44.4004C71.8224 43.1031 70.6958 42.1995 69.239 41.9827C68.552 41.8806 67.7653 41.9241 66.8343 42.1153C65.2116 42.4487 64.0077 42.5757 63.1291 42.6002C66.4454 37.0235 69.142 30.6641 70.6944 24.6777C73.2047 14.9979 71.8633 10.5882 70.2958 8.59355C66.1473 3.31402 60.0949 0.4778 52.7932 0.391017C48.898 0.343579 45.4786 1.10956 43.6947 1.66039C42.0339 1.36851 40.2481 1.20555 38.3744 1.17541C34.8619 1.1196 31.7585 1.88224 29.1067 3.44963C27.6386 2.95516 25.2824 2.25811 22.5614 1.81331C16.1619 0.766891 11.004 1.58226 7.23126 4.23682C2.66286 7.45086 0.545073 13.0351 0.936746 20.8344C1.06114 23.3107 2.45189 30.8449 4.64168 37.9901C5.90019 42.0971 7.24219 45.5076 8.63042 48.1279C10.5992 51.8433 12.7057 54.0313 15.0706 54.8171C16.3961 55.2569 18.8044 55.565 21.3374 53.4638C21.6585 53.8511 22.0868 54.2359 22.6553 54.5933C23.3773 55.0468 24.2601 55.4174 25.1418 55.637C28.3192 56.4281 31.2954 56.2302 33.8345 55.1213C33.8502 55.5711 33.8623 56.0008 33.8724 56.372C33.8892 56.9739 33.906 57.564 33.9281 58.116C34.0786 61.848 34.3335 64.7497 35.0888 66.7801C35.1303 66.8917 35.1861 67.0619 35.2449 67.2425C35.6217 68.3916 36.2518 70.3153 37.8549 71.8219C39.5149 73.3826 41.5229 73.8611 43.3619 73.8611C44.2842 73.8611 45.1642 73.7406 45.9361 73.5759C48.6873 72.9886 51.812 72.0939 54.0724 68.8883C56.2095 65.8578 57.2484 61.2935 57.4364 54.1017C57.4607 53.8982 57.4832 53.704 57.5047 53.519L57.5496 53.1389L58.053 53.183L58.1827 53.1917C60.985 53.3189 64.4114 52.7271 66.5157 51.7535C68.1785 50.985 73.507 48.1831 72.2524 44.4004" fill="#1E2235"/>
<path d="M67.461 45.1361C59.1288 46.848 58.5559 44.0383 58.5559 44.0383C67.3531 31.0367 71.0309 14.5332 67.8574 10.494C59.1992 -0.524151 44.2116 4.68675 43.9614 4.82181L43.881 4.83632C42.2347 4.49588 40.3926 4.29329 38.3219 4.25953C34.552 4.19814 31.692 5.244 29.5219 6.88312C29.5219 6.88312 2.78548 -4.08728 4.02914 20.6802C4.29362 25.9492 11.6116 60.5483 20.3399 50.0978C23.5302 46.2763 26.6129 43.0452 26.6129 43.0452C28.1437 44.0581 29.9766 44.5749 31.898 44.3894L32.0473 44.2632C32.0008 44.7376 32.0221 45.2017 32.107 45.7511C29.8583 48.2533 30.5193 48.6925 26.0242 49.6142C21.4757 50.5479 24.1477 52.2099 25.8923 52.6447C28.0073 53.1712 32.9001 53.9174 36.2061 49.3078L36.0744 49.8338C36.9553 50.5367 37.5739 54.4054 37.4702 57.9128C37.3665 61.4198 37.2973 63.8277 37.9913 65.7084C38.6859 67.5892 39.3776 71.8209 45.2869 70.5599C50.2243 69.506 52.783 66.775 53.1391 62.2193C53.3916 58.9807 53.9634 59.4595 53.9992 56.5638L54.4579 55.1932C54.9866 50.8029 54.5419 49.3865 57.5837 50.0453L58.3233 50.1101C60.5619 50.2114 63.4924 49.7512 65.2124 48.9551C68.9156 47.2434 71.1122 44.3852 67.4605 45.1361H67.461" fill="#0E7490"/>
<path d="M31.0871 23.0365C30.3362 22.9324 29.6563 23.0287 29.3122 23.2882C29.1189 23.4341 29.0589 23.6032 29.0427 23.7196C28.9995 24.0279 29.2164 24.3689 29.3498 24.5447C29.7269 25.0425 30.2777 25.3846 30.8229 25.46C30.9019 25.4711 30.9806 25.4762 31.0588 25.4762C31.9679 25.4762 32.7947 24.771 32.8675 24.2506C32.9586 23.5987 32.0085 23.1643 31.0871 23.0368V23.0365ZM55.9615 23.0571C55.8897 22.5462 54.9769 22.4005 54.1107 22.5205C53.2455 22.6405 52.4067 23.0295 52.4767 23.5415C52.5328 23.9397 53.2548 24.6195 54.1093 24.6195C54.1816 24.6195 54.2544 24.6147 54.3278 24.6044C54.8982 24.5257 55.3168 24.1649 55.5157 23.957C55.8183 23.64 55.9937 23.2868 55.9615 23.0571" fill="#1E2235"/>
<path d="M70.2337 44.9416C69.916 43.9847 68.8934 43.6769 67.1945 44.0263C62.1501 45.0632 60.3435 44.345 59.7504 43.9099C63.6714 37.9607 66.8969 30.7691 68.6371 24.0595C69.4613 20.8811 69.9166 17.9294 69.9538 15.5234C69.995 12.8828 69.5434 10.9423 68.6121 9.75696C64.8573 4.97829 59.3464 2.41498 52.6756 2.34466C48.0896 2.29331 44.2148 3.46224 43.4637 3.79095C41.8819 3.39917 40.1574 3.15863 38.28 3.12794C34.8373 3.07241 31.8614 3.89336 29.3976 5.5668C28.3274 5.17 25.5615 4.22431 22.1791 3.68157C16.3314 2.74397 11.6846 3.45442 8.3685 5.79422C4.41169 8.58636 2.58499 13.5774 2.93885 20.6283C3.05792 23.0005 4.41505 30.2981 6.55665 37.2868C9.3757 46.4853 12.4402 51.6925 15.6643 52.7638C16.0417 52.8891 16.4768 52.9767 16.9568 52.9767C18.1329 52.9767 19.5749 52.4488 21.0752 50.6523C22.9052 48.4658 24.7981 46.3324 26.7517 44.2548C28.0192 44.9324 29.4116 45.3108 30.8357 45.3487C30.8385 45.3858 30.8421 45.4229 30.8455 45.4598C30.6004 45.7509 30.3603 46.0463 30.1255 46.3457C29.1387 47.5934 28.9334 47.8531 25.7571 48.5044C24.8536 48.6903 22.4539 49.1828 22.4186 50.8582C22.3805 52.6887 25.2553 53.4575 25.5828 53.539C26.7242 53.8236 27.8239 53.964 28.8726 53.964C31.4229 53.964 33.6674 53.1291 35.461 51.5137C35.4058 58.0394 35.679 64.4698 36.4657 66.429C37.1101 68.0329 38.684 71.9527 43.6559 71.9524C44.3855 71.9524 45.1884 71.8678 46.0718 71.6792C51.2608 70.5714 53.5142 68.2871 54.3858 63.2512C54.8522 60.5598 55.6527 54.1331 56.0292 50.6857C56.8238 50.9327 57.8467 51.0457 58.9525 51.0454C61.2588 51.0454 63.9202 50.5574 65.5891 49.7858C67.464 48.9185 70.8473 46.7905 70.2337 44.9416V44.9416ZM57.8767 21.6468C57.8596 22.6645 57.7189 23.5884 57.5699 24.5528C57.4093 25.59 57.2435 26.6624 57.2017 27.9641C57.1605 29.231 57.3194 30.5481 57.4729 31.822C57.7834 34.3948 58.1019 37.0435 56.8689 39.657C56.6641 39.2955 56.4816 38.9219 56.3226 38.5383C56.1693 38.1683 55.8365 37.5739 55.3756 36.7513C53.5828 33.549 49.3845 26.0499 51.5337 22.9899C52.1738 22.0791 53.7985 21.1426 57.8767 21.6468V21.6468ZM52.9334 4.40541C58.9105 4.53684 63.6386 6.76391 66.986 11.0244C69.5535 14.2923 66.7263 29.1618 58.5418 41.9898C58.4595 41.8856 58.3767 41.7817 58.2935 41.6781L58.1899 41.5492C60.3049 38.0703 59.8913 34.6283 59.5232 31.5767C59.3719 30.3243 59.229 29.1414 59.2654 28.0303C59.303 26.8527 59.4593 25.8426 59.6106 24.8659C59.7964 23.6624 59.9855 22.417 59.9334 20.9489C59.9723 20.7949 59.988 20.613 59.9675 20.397C59.8345 18.9892 58.2207 14.7759 54.9315 10.9624C53.1323 8.87657 50.5085 6.54235 46.926 4.96797C48.4669 4.64986 50.5741 4.35323 52.9334 4.40541V4.40541ZM19.4875 49.3374C17.8345 51.3169 16.6931 50.9374 16.3177 50.813C13.8718 50.0004 11.0337 44.8514 8.53155 36.6866C6.36642 29.6217 5.10118 22.5174 5.00088 20.5253C4.68485 14.225 6.21821 9.83425 9.55865 7.47464C14.995 3.63497 23.9329 5.93319 27.5244 7.09876C27.4729 7.14955 27.4191 7.19699 27.3681 7.24861C21.4745 13.1767 21.6143 23.3049 21.6288 23.9241C21.6283 24.163 21.6484 24.5012 21.6759 24.9664C21.7773 26.6699 21.9662 29.8404 21.4619 33.4309C20.9934 36.7675 22.0261 40.0332 24.2946 42.3908C24.5274 42.6323 24.7721 42.8622 25.0278 43.0795C24.0181 44.1566 21.8236 46.5386 19.4875 49.3374V49.3374ZM25.7854 40.968C23.957 39.0677 23.1266 36.4245 23.5068 33.7156C24.0391 29.9228 23.8427 26.6194 23.7371 24.8447C23.7222 24.5963 23.7091 24.3787 23.7015 24.2071C24.5625 23.4467 28.5523 21.3175 31.3977 21.9669C32.696 22.263 33.4872 23.1436 33.8161 24.6583C35.5184 32.5003 34.0414 35.7688 32.8546 38.3954C32.61 38.9365 32.3789 39.448 32.1816 39.9771L32.0287 40.3862C31.6415 41.4203 31.2812 42.3819 31.0579 43.2949C29.1141 43.2893 27.2232 42.4623 25.7854 40.9677V40.968ZM26.0838 51.5438C25.5162 51.4026 25.0057 51.1573 24.7062 50.9539C24.9564 50.8367 25.4016 50.6771 26.1737 50.5186C29.9103 49.7526 30.4875 49.2118 31.7477 47.6182C32.0365 47.2526 32.364 46.8385 32.8176 46.334L32.8182 46.3335C33.4937 45.58 33.8027 45.7078 34.363 45.9394C34.8172 46.1264 35.2596 46.6934 35.4389 47.3174C35.5238 47.612 35.619 48.1713 35.3072 48.6066C32.6747 52.2777 28.8387 52.2305 26.0838 51.5438V51.5438ZM45.6392 69.6684C41.068 70.6439 39.4495 68.3209 38.3829 65.6652C37.6945 63.9507 37.3561 56.2195 37.5962 47.6815C37.5992 47.568 37.583 47.4583 37.5516 47.355C37.5235 47.1512 37.4808 46.9495 37.4239 46.7517C37.0669 45.5094 36.197 44.4703 35.1534 44.0394C34.7387 43.8684 33.9778 43.5544 33.0633 43.7874C33.2583 42.9871 33.5965 42.0833 33.9632 41.1047L34.117 40.6931C34.2902 40.2291 34.5076 39.7483 34.7373 39.2393C35.9793 36.4912 37.6802 32.7272 35.8342 24.2238C35.1427 21.0388 32.8336 19.4834 29.3332 19.8447C27.2347 20.061 25.3147 20.9043 24.3571 21.3879C24.1512 21.4917 23.9629 21.5921 23.787 21.6898C24.0542 18.4808 25.064 12.4835 28.8412 8.68905C31.2195 6.30041 34.3868 5.12061 38.2459 5.18423C45.8496 5.30813 50.7257 9.19468 53.4775 12.4336C55.8488 15.2243 57.1328 18.0357 57.6452 19.552C53.7915 19.1616 51.1706 19.9192 49.842 21.8112C46.9515 25.9266 51.4233 33.914 53.5724 37.7528C53.9666 38.4563 54.3068 39.0643 54.4138 39.3227C55.1136 41.0121 56.0197 42.14 56.6812 42.9631C56.884 43.2154 57.0807 43.4601 57.2303 43.6739C56.0631 44.009 53.9666 44.7834 54.1577 48.654C54.0036 50.5962 52.9079 59.6892 52.3512 62.9018C51.6163 67.1461 50.0482 68.7269 45.6392 69.6687V69.6684ZM64.7198 47.9207C63.5262 48.4723 61.5289 48.8862 59.6316 48.9752C57.536 49.0729 56.4691 48.7413 56.2181 48.5374C56.1004 46.1253 57.0017 45.8733 57.9557 45.6065C58.1056 45.5647 58.2518 45.5237 58.393 45.4746C58.4807 45.5457 58.5768 45.6163 58.6821 45.6855C60.3665 46.7928 63.3707 46.9122 67.6122 46.0402L67.6587 46.031C67.0866 46.5637 66.1077 47.2786 64.7198 47.9207Z" fill="#1E2235"/>
</svg>
