<svg width="74" height="74" viewBox="0 0 74 74" fill="none" xmlns="http://www.w3.org/2000/svg">
<path d="M72.9366 11.2636L38.5671 72.9022C37.8574 74.1748 36.0343 74.1823 35.3141 72.9159L0.263169 11.2693C-0.521646 9.88944 0.655005 8.21775 2.21435 8.49751L36.6208 14.6652C36.8403 14.7045 37.065 14.7041 37.2844 14.664L70.9712 8.50611C72.5254 8.22205 73.7074 9.88084 72.9366 11.2636V11.2636Z" fill="url(#paint0_linear_8535_17)"/>
<path d="M53.01 0.407005L27.5758 5.40545C27.3726 5.44538 27.1883 5.55191 27.0521 5.7083C26.9158 5.86469 26.8352 6.06206 26.823 6.26939L25.2585 32.7711C25.2499 32.9164 25.2752 33.0618 25.3324 33.1956C25.3896 33.3294 25.4771 33.4481 25.588 33.542C25.6988 33.636 25.83 33.7028 25.9711 33.737C26.1122 33.7713 26.2594 33.7721 26.4008 33.7393L33.4822 32.1003C34.1447 31.947 34.7434 32.5323 34.6071 33.2005L32.5033 43.533C32.3618 44.2284 33.0126 44.8229 33.6897 44.6165L38.0636 43.2839C38.7415 43.0775 39.3932 43.6737 39.2497 44.3697L35.9064 60.5996C35.6972 61.6149 37.0436 62.1684 37.6049 61.2982L37.9802 60.7169L58.7055 19.2342C59.0527 18.5396 58.454 17.7476 57.6937 17.895L50.4043 19.3058C49.7195 19.4383 49.1368 18.7985 49.33 18.1266L54.0875 1.58596C54.281 0.912354 53.6959 0.272284 53.0103 0.407005H53.01Z" fill="url(#paint1_linear_8535_17)"/>
<defs>
<linearGradient id="paint0_linear_8535_17" x1="-0.592627" y1="13.4706" x2="36.6154" y2="63.8547" gradientUnits="userSpaceOnUse">
<stop stop-color="#41D1FF"/>
<stop offset="1" stop-color="#BD34FE"/>
</linearGradient>
<linearGradient id="paint1_linear_8535_17" x1="39.8094" y1="1.76418" x2="47.4787" y2="54.22" gradientUnits="userSpaceOnUse">
<stop stop-color="#FFEA83"/>
<stop offset="0.083" stop-color="#FFDD35"/>
<stop offset="1" stop-color="#FFA800"/>
</linearGradient>
</defs>
</svg>
