<svg width="74" height="74" viewBox="0 0 74 74" fill="none" xmlns="http://www.w3.org/2000/svg">
<path d="M36.6305 0.579834C18.1198 0.579834 19.2755 8.66838 19.2755 8.66838L19.2961 17.0484H36.9605V19.5643H12.2801C12.2801 19.5643 0.435059 18.2106 0.435059 37.0302C0.435059 55.8504 10.7737 55.1829 10.7737 55.1829H16.9437V46.4496C16.9437 46.4496 16.6111 36.0322 27.1173 36.0322H44.6372C44.6372 36.0322 54.4805 36.1925 54.4805 26.4465V10.3321C54.4805 10.3321 55.9755 0.579834 36.6305 0.579834ZM26.8903 6.2152C27.3077 6.21483 27.7211 6.29739 28.1068 6.45817C28.4926 6.61896 28.843 6.8548 29.1382 7.15222C29.4334 7.44963 29.6674 7.80277 29.827 8.19143C29.9866 8.58009 30.0685 8.99664 30.0681 9.41725C30.0685 9.83785 29.9866 10.2544 29.827 10.6431C29.6674 11.0317 29.4334 11.3849 29.1382 11.6823C28.843 11.9797 28.4926 12.2155 28.1068 12.3763C27.7211 12.5371 27.3077 12.6197 26.8903 12.6193C26.4729 12.6197 26.0595 12.5371 25.6738 12.3763C25.288 12.2155 24.9376 11.9797 24.6424 11.6823C24.3472 11.3849 24.1132 11.0317 23.9536 10.6431C23.7941 10.2544 23.7121 9.83785 23.7125 9.41725C23.7121 8.99664 23.7941 8.58009 23.9536 8.19143C24.1132 7.80277 24.3472 7.44963 24.6424 7.15222C24.9376 6.8548 25.288 6.61896 25.6738 6.45817C26.0595 6.29739 26.4729 6.21483 26.8903 6.2152V6.2152Z" fill="#0891B2"/>
<path d="M37.1564 73.6701C55.6671 73.6701 54.5113 65.5815 54.5113 65.5815L54.4907 57.2018H36.826V54.6859H61.5065C61.5065 54.6859 73.3515 56.0395 73.3515 37.2193C73.3515 18.3994 63.0129 19.0669 63.0129 19.0669H56.8428V27.7999C56.8428 27.7999 57.1755 38.2173 46.6693 38.2173H29.1493C29.1493 38.2173 19.3061 38.0571 19.3061 47.8034V63.918C19.3061 63.918 17.8114 73.6701 37.1561 73.6701H37.1564ZM46.8965 68.0353C46.4791 68.0356 46.0657 67.9531 45.68 67.7923C45.2943 67.6315 44.9438 67.3957 44.6486 67.0982C44.3535 66.8008 44.1194 66.4477 43.9599 66.059C43.8003 65.6704 43.7183 65.2538 43.7187 64.8332C43.7183 64.4126 43.8002 63.996 43.9598 63.6073C44.1193 63.2186 44.3534 62.8654 44.6485 62.568C44.9437 62.2705 45.2942 62.0347 45.6799 61.8739C46.0657 61.7131 46.4791 61.6305 46.8965 61.6309C47.314 61.6305 47.7274 61.7131 48.1131 61.8738C48.4988 62.0346 48.8493 62.2705 49.1444 62.5679C49.4396 62.8653 49.6737 63.2184 49.8332 63.6071C49.9928 63.9958 50.0747 64.4123 50.0744 64.8329C50.0747 65.2535 49.9928 65.6701 49.8332 66.0587C49.6737 66.4474 49.4396 66.8005 49.1444 67.098C48.8493 67.3954 48.4988 67.6312 48.1131 67.792C47.7274 67.9528 47.314 68.0353 46.8965 68.035V68.0353Z" fill="#FACC15"/>
</svg>
