<svg width="75" height="74" viewBox="0 0 75 74" fill="none" xmlns="http://www.w3.org/2000/svg">
<path d="M73.0266 33.8514L40.5899 1.77448C38.7231 -0.0729402 35.6933 -0.0729402 33.8241 1.77448L27.0885 8.43578L35.633 16.8859C37.6185 16.2224 39.8955 16.6675 41.4783 18.2328C43.0686 19.8082 43.5155 22.0792 42.8283 24.0492L51.0628 32.1931C53.0551 31.5144 55.3538 31.9535 56.945 33.5297C59.1688 35.7281 59.1688 39.2912 56.945 41.4911C54.7206 43.6913 51.1177 43.6913 48.8921 41.4911C47.2194 39.8351 46.8061 37.4056 47.6529 35.3677L39.9735 27.773L39.9727 47.7589C40.5294 48.0311 41.0378 48.3907 41.4783 48.8237C43.7021 51.0221 43.7021 54.5855 41.4783 56.7871C39.2538 58.9861 35.6492 58.9861 33.428 56.7871C31.2042 54.5855 31.2042 51.0224 33.428 48.824C33.9609 48.2967 34.5943 47.8791 35.2914 47.5953V27.4232C34.5932 27.1413 33.9595 26.7235 33.428 26.1945C31.7431 24.5305 31.3379 22.0855 32.2013 20.0395L23.7784 11.7087L1.53718 33.703C-0.33173 35.5522 -0.33173 38.5488 1.53718 40.3965L33.9744 72.474C35.8419 74.3217 38.8711 74.3217 40.7408 72.474L73.0263 40.5454C74.8947 38.6972 74.8947 35.6989 73.0263 33.8514" fill="#EF4444"/>
</svg>
