<svg width="74" height="45" viewBox="0 0 74 45" fill="none" xmlns="http://www.w3.org/2000/svg">
<path d="M17.4888 11.5741H31.3739V12.6703H18.7616V20.92H30.6218V22.0162H18.7616V31.0736H31.5186V32.1697H17.4888V11.5741ZM32.6178 11.5741H34.0931L40.6307 20.6316L47.3129 11.5741L56.4019 0.0690918L41.4696 21.5835L49.1643 32.1697H47.6311L40.6307 22.5354L33.6013 32.1697H32.0971L39.8497 21.5835L32.6178 11.5741ZM49.7139 12.6703V11.5741H65.5372V12.6703H58.2475V32.1697H56.9747V12.6703H49.7139Z" fill="white"/>
<path d="M0.117676 11.5742H1.70868L23.6478 44.1812L14.5814 32.1698L1.44834 13.1319L1.39048 32.1698H0.117676V11.5742Z" fill="white"/>
<path d="M65.4087 30.7429C65.6718 30.7429 65.8638 30.5428 65.8638 30.2842C65.8638 30.0255 65.6718 29.8254 65.4087 29.8254C65.1486 29.8254 64.9536 30.0255 64.9536 30.2842C64.9536 30.5428 65.1486 30.7429 65.4087 30.7429ZM66.6594 29.536C66.6594 30.2995 67.2135 30.7983 68.0215 30.7983C68.8821 30.7983 69.4022 30.2842 69.4022 29.3913V26.2479H68.7088V29.3882C68.7088 29.8839 68.458 30.1487 68.0153 30.1487C67.6191 30.1487 67.3497 29.9024 67.3404 29.536H66.6594ZM70.3093 29.496C70.3588 30.2903 71.0244 30.7983 72.015 30.7983C73.0738 30.7983 73.7363 30.2657 73.7363 29.4159C73.7363 28.7479 73.3586 28.3784 72.4422 28.166L71.95 28.0459C71.368 27.9104 71.1327 27.7288 71.1327 27.4117C71.1327 27.0114 71.498 26.7497 72.046 26.7497C72.5661 26.7497 72.9252 27.0053 72.9902 27.4147H73.6651C73.6248 26.6666 72.9623 26.1401 72.0553 26.1401C71.0801 26.1401 70.43 26.6666 70.43 27.4578C70.43 28.1105 70.7984 28.4985 71.6064 28.6863L72.1822 28.8248C72.7735 28.9634 73.0335 29.1666 73.0335 29.5052C73.0335 29.8993 72.6249 30.1856 72.0677 30.1856C71.4702 30.1856 71.0553 29.9178 70.9965 29.496H70.3093Z" fill="white"/>
</svg>
