<svg width="35" height="74" viewBox="0 0 35 74" fill="none" xmlns="http://www.w3.org/2000/svg">
<path d="M17.2275 0.5896L19.21 4.27212C19.6557 4.95169 20.1386 5.5532 20.7074 6.11338C22.3748 7.74188 23.9291 9.47996 25.3596 11.3157C28.7187 15.6778 30.9845 20.522 32.6026 25.7611C33.5729 28.9615 34.0999 32.2446 34.1394 35.5644C34.3019 45.4893 30.8615 54.0114 23.9249 61.094C22.7966 62.2172 21.5777 63.2476 20.2802 64.1751C19.5931 64.1751 19.268 63.6539 18.9848 63.1741C18.4691 62.2843 18.1258 61.3072 17.9727 60.2928C17.7289 59.0921 17.5687 57.8914 17.6477 56.6516V56.0914C17.5919 55.972 16.986 0.871987 17.2275 0.5896V0.5896Z" fill="#599636"/>
<path d="M17.2275 0.4679C17.1463 0.307191 17.065 0.42887 16.9838 0.506929C17.0233 1.31047 16.74 2.02677 16.2966 2.71093C15.8091 3.3905 15.1638 3.91166 14.5161 4.47184C10.9178 7.55285 8.08562 11.2744 5.81754 15.4368C2.79964 21.0386 1.24426 27.0422 0.803182 33.3627C0.601215 35.6424 1.53212 43.687 2.25874 46.0081C4.24127 52.1702 7.8024 57.3335 12.4151 61.815C13.548 62.894 14.7598 63.895 16.0134 64.8569C16.3779 64.8569 16.4174 64.5355 16.5009 64.2968C16.6607 63.7859 16.7825 63.2641 16.8654 62.7356L17.6779 56.7343L17.2275 0.4679Z" fill="#6CAC48"/>
<path d="M19.2101 66.6132C19.2913 65.6948 19.7371 64.9326 20.2223 64.1727C19.7347 63.973 19.3726 63.5758 19.0894 63.1327C18.8452 62.7132 18.643 62.271 18.4858 61.8126C17.9194 60.1321 17.7986 58.3689 17.6361 56.6516V55.6116C17.4342 55.7723 17.3924 57.1314 17.3924 57.3334C17.2742 59.1485 17.0307 60.9534 16.6634 62.7355C16.5427 63.4564 16.4615 64.175 16.0134 64.8155C16.0134 64.8959 16.0134 64.9762 16.0529 65.0956C16.7818 67.217 16.9815 69.3773 17.1045 71.579V72.3826C17.1045 73.3422 17.0651 73.1402 17.8706 73.4616C18.1956 73.581 18.5578 73.6223 18.8828 73.8611C19.1265 73.8611 19.166 73.6614 19.166 73.5006L19.0453 72.1806V68.498C19.0058 67.8552 19.1265 67.217 19.2078 66.6155L19.2101 66.6132Z" fill="#C2BFBF"/>
</svg>
