<svg width="50" height="74" viewBox="0 0 50 74" fill="none" xmlns="http://www.w3.org/2000/svg">
<path d="M12.6257 73.8611C19.4606 73.8611 25.0077 68.3751 25.0077 61.6157V49.3704H12.6257C5.79081 49.3704 0.243652 54.8563 0.243652 61.6157C0.243652 68.3751 5.79081 73.8611 12.6257 73.8611Z" fill="#0ACF83"/>
<path d="M0.243652 37.125C0.243652 30.3656 5.79081 24.8796 12.6257 24.8796H25.0077V49.3703H12.6257C5.79081 49.3703 0.243652 43.8844 0.243652 37.125Z" fill="#A259FF"/>
<path d="M0.243652 12.6343C0.243652 5.87484 5.79081 0.388916 12.6257 0.388916H25.0077V24.8796H12.6257C5.79081 24.8796 0.243652 19.3937 0.243652 12.6343Z" fill="#F24E1E"/>
<path d="M25.0078 0.388916H37.3899C44.2248 0.388916 49.7719 5.87484 49.7719 12.6343C49.7719 19.3937 44.2248 24.8796 37.3899 24.8796H25.0078V0.388916Z" fill="#FF7262"/>
<path d="M49.7719 37.125C49.7719 43.8844 44.2248 49.3703 37.3899 49.3703C30.555 49.3703 25.0078 43.8844 25.0078 37.125C25.0078 30.3656 30.555 24.8796 37.3899 24.8796C44.2248 24.8796 49.7719 30.3656 49.7719 37.125Z" fill="#1ABCFE"/>
</svg>
