<svg width="68" height="74" viewBox="0 0 68 74" fill="none" xmlns="http://www.w3.org/2000/svg">
<path d="M31.0849 1.17276C32.9293 0.129991 35.3317 0.125281 37.1745 1.17276C46.4455 6.3471 55.7195 11.5133 64.989 16.6908C66.7324 17.6608 67.8986 19.5773 67.8809 21.5616V52.6924C67.8939 54.7589 66.6124 56.7211 64.7731 57.6692C55.5325 62.815 46.2967 67.9671 37.0577 73.1129C35.1751 74.1761 32.7245 74.0942 30.9008 72.9439C28.1305 71.3576 25.3554 69.7792 22.5848 68.1945C22.0187 67.8611 21.3805 67.5958 20.9807 67.0536C21.3341 66.5831 21.9659 66.5245 22.4794 66.3191C23.6358 65.9559 24.6978 65.3729 25.7602 64.8071C26.0288 64.6255 26.3568 64.6951 26.6143 64.8576C28.9833 66.1992 31.3313 67.5798 33.7082 68.9086C34.2153 69.1978 34.7287 68.8139 35.1621 68.5752C44.23 63.5132 53.309 58.4702 62.3752 53.4065C62.7112 53.2469 62.8969 52.8947 62.8696 52.5312C62.8759 42.2618 62.8712 31.9906 62.8728 21.7212C62.9112 21.3088 62.6696 20.9297 62.292 20.7609C53.0835 15.6386 43.8797 10.5085 34.6728 5.38493C34.5133 5.27661 34.3243 5.21849 34.1308 5.21821C33.9372 5.21793 33.748 5.2755 33.5882 5.38336C24.3813 10.5085 15.1791 15.6433 5.97215 20.7653C5.59596 20.9344 5.34348 21.3073 5.38825 21.7212C5.38984 31.9906 5.38825 42.2618 5.38825 52.5328C5.37229 52.7101 5.41172 52.8881 5.50125 53.0426C5.59077 53.1971 5.72608 53.3208 5.88896 53.3971C8.34588 54.7733 10.806 56.1397 13.2645 57.5111C14.6495 58.2475 16.3501 58.685 17.876 58.1208C19.2226 57.6438 20.1666 56.2865 20.1409 54.8743C20.1536 44.6648 20.1345 34.4538 20.1504 24.2459C20.1168 23.7926 20.552 23.4182 20.9982 23.4608C22.1787 23.453 23.3608 23.4451 24.5413 23.464C25.034 23.453 25.3731 23.941 25.3122 24.3976C25.3074 34.6717 25.3249 44.9461 25.3043 55.2202C25.3074 57.9583 24.1685 60.9378 21.6043 62.2775C18.4454 63.8939 14.5409 63.5511 11.4201 62.0012C8.71836 60.6693 6.14011 59.0974 3.48636 57.6705C1.64221 56.7277 0.36713 54.7575 0.380111 52.6927V21.5616C0.360771 19.5362 1.57333 17.5849 3.37111 16.6291C12.6101 11.479 21.8475 6.32512 31.0849 1.17276Z" fill="#8CC84B"/>
<path d="M39.1449 22.7372C43.1744 22.481 47.4882 22.5854 51.1142 24.5462C53.9216 26.0487 55.478 29.2021 55.5276 32.2828C55.4492 32.6984 55.0094 32.9276 54.6078 32.8991C53.4386 32.8975 52.2693 32.9148 51.1001 32.8912C50.6042 32.91 50.316 32.4584 50.2537 32.0253C49.9178 30.5513 49.1039 29.0914 47.6993 28.3805C45.5431 27.3142 43.043 27.3678 40.6918 27.39C38.9753 27.4801 37.1296 27.6269 35.6754 28.6238C34.559 29.379 34.2199 30.9035 34.6184 32.1313C34.994 33.0129 36.0243 33.2973 36.8673 33.5595C41.7234 34.814 46.8693 34.6892 51.6326 36.3401C53.6048 37.0131 55.5339 38.3215 56.209 40.361C57.092 43.0944 56.7049 46.3617 54.736 48.5561C53.1393 50.3619 50.8138 51.3447 48.4943 51.8785C45.4088 52.5581 42.2066 52.5754 39.0731 52.2737C36.1266 51.9419 33.0603 51.1772 30.7857 49.1943C28.8406 47.5261 27.8906 44.9269 27.9849 42.4182C28.0074 41.9946 28.4345 41.6992 28.8454 41.734C30.0227 41.7245 31.2 41.7214 32.3774 41.7355C32.8476 41.7023 33.1962 42.1037 33.2204 42.5415C33.4376 43.9459 33.9719 45.4199 35.2118 46.2525C37.6046 47.7773 40.607 47.6729 43.3469 47.7156C45.6167 47.6161 48.1648 47.586 50.0171 46.1042C50.9944 45.259 51.284 43.8449 51.0199 42.6284C50.7338 41.6013 49.646 41.1227 48.7118 40.8097C43.918 39.3119 38.7146 39.8554 33.9672 38.1616C32.0399 37.4888 30.1761 36.2168 29.4356 34.2611C28.4024 31.4931 28.8759 28.0693 31.0512 25.949C33.1721 23.8399 36.2339 23.0277 39.1449 22.737V22.7372Z" fill="#8CC84B"/>
</svg>
