<svg width="77" height="81" viewBox="0 0 77 81" fill="none" xmlns="http://www.w3.org/2000/svg">
<path d="M38.2606 46.6024C41.8995 46.6024 44.8493 43.7024 44.8493 40.1249C44.8493 36.5475 41.8995 33.6475 38.2606 33.6475C34.6218 33.6475 31.6719 36.5475 31.6719 40.1249C31.6719 43.7024 34.6218 46.6024 38.2606 46.6024Z" fill="#61DAFB"/>
<path fill-rule="evenodd" clip-rule="evenodd" d="M7.29451 36.7123C5.80246 38.0365 5.30873 39.1937 5.30873 40.125C5.30873 41.0563 5.80246 42.2135 7.29451 43.5376C8.78631 44.8616 11.0799 46.1621 14.1184 47.3027C20.1791 49.5777 28.714 51.0343 38.2608 51.0343C47.8075 51.0343 56.3425 49.5777 62.4031 47.3027C65.4417 46.1621 67.7352 44.8616 69.227 43.5376C70.719 42.2135 71.2128 41.0563 71.2128 40.125C71.2128 39.1937 70.719 38.0365 69.227 36.7123C67.7352 35.3884 65.4417 34.0879 62.4031 32.9473C56.3425 30.6723 47.8075 29.2156 38.2608 29.2156C28.714 29.2156 20.1791 30.6723 14.1184 32.9473C11.0799 34.0879 8.78631 35.3884 7.29451 36.7123ZM12.4047 28.5347C19.1398 26.0066 28.2819 24.4924 38.2608 24.4924C48.2396 24.4924 57.3817 26.0066 64.1168 28.5347C67.4761 29.7957 70.36 31.3548 72.4463 33.2063C74.5323 35.0576 76.0171 37.3916 76.0171 40.125C76.0171 42.8584 74.5323 45.1924 72.4463 47.0436C70.36 48.8951 67.4761 50.4542 64.1168 51.7152C57.3817 54.2434 48.2396 55.7575 38.2608 55.7575C28.2819 55.7575 19.1398 54.2434 12.4047 51.7152C9.04543 50.4542 6.16147 48.8951 4.07523 47.0436C1.98924 45.1924 0.504395 42.8584 0.504395 40.125C0.504395 37.3916 1.98924 35.0576 4.07523 33.2063C6.16147 31.3548 9.04543 29.7957 12.4047 28.5347Z" fill="#61DAFB"/>
<path fill-rule="evenodd" clip-rule="evenodd" d="M25.7839 12.0539C23.8714 11.4457 22.6052 11.6039 21.7848 12.0695C20.9644 12.5352 20.1919 13.5341 19.7715 15.4666C19.3511 17.3986 19.3522 20.0016 19.8668 23.159C20.8931 29.4565 23.8774 37.4515 28.6508 45.5796C33.4242 53.7078 38.9748 60.2461 44.0091 64.2687C46.5331 66.2854 48.8256 67.5879 50.7377 68.196C52.6502 68.8043 53.9164 68.646 54.7368 68.1804C55.5572 67.7147 56.3297 66.7158 56.7501 64.7834C57.1705 62.8513 57.1693 60.2483 56.6548 57.0909C55.6285 50.7934 52.6442 42.7984 47.8708 34.6703C43.0974 26.5422 37.5468 20.0038 32.5125 15.9813C29.9884 13.9645 27.696 12.6621 25.7839 12.0539ZM35.5426 12.316C41.1372 16.7861 47.0421 23.8127 52.0315 32.3087C57.0209 40.8047 60.2582 49.3454 61.3986 56.3437C61.9675 59.8343 62.036 63.0693 61.4482 65.7713C60.8604 68.4729 59.5468 70.9041 57.139 72.2708C54.7311 73.6375 51.9327 73.5403 49.2589 72.6899C46.5848 71.8394 43.7694 70.1636 40.979 67.934C35.3844 63.4638 29.4795 56.4372 24.4901 47.9412C19.5007 39.4453 16.2634 30.9045 15.1229 23.9062C14.5541 20.4156 14.4855 17.1806 15.0734 14.4787C15.6612 11.777 16.9748 9.34581 19.3826 7.97912C21.7904 6.61243 24.5889 6.70963 27.2627 7.56001C29.9368 8.4105 32.7522 10.0863 35.5426 12.316Z" fill="#61DAFB"/>
<path fill-rule="evenodd" clip-rule="evenodd" d="M56.7501 15.4666C56.3297 13.5342 55.5572 12.5352 54.7368 12.0696C53.9164 11.6039 52.6502 11.4457 50.7377 12.0539C48.8256 12.6621 46.5331 13.9645 44.0091 15.9813C38.9748 20.0038 33.4241 26.5422 28.6508 34.6703C23.8774 42.7985 20.8931 50.7934 19.8668 57.091C19.3522 60.2483 19.3511 62.8513 19.7715 64.7834C20.1919 66.7158 20.9644 67.7148 21.7848 68.1804C22.6051 68.6461 23.8714 68.8043 25.7839 68.196C27.696 67.5879 29.9884 66.2854 32.5125 64.2687C37.5468 60.2461 43.0974 53.7078 47.8708 45.5797C52.6442 37.4515 55.6285 29.4565 56.6548 23.159C57.1693 20.0017 57.1705 17.3987 56.7501 15.4666ZM61.3986 23.9062C60.2581 30.9045 57.0209 39.4453 52.0315 47.9413C47.0421 56.4372 41.1372 63.4638 35.5426 67.934C32.7522 70.1636 29.9368 71.8395 27.2627 72.6899C24.5889 73.5403 21.7904 73.6375 19.3826 72.2708C16.9748 70.9041 15.6612 68.4729 15.0734 65.7713C14.4855 63.0693 14.5541 59.8344 15.1229 56.3438C16.2634 49.3454 19.5007 40.8047 24.4901 32.3087C29.4795 23.8127 35.3844 16.7862 40.979 12.316C43.7694 10.0864 46.5848 8.41052 49.2589 7.56003C51.9327 6.70965 54.7311 6.61245 57.139 7.97914C59.5468 9.34583 60.8604 11.777 61.4482 14.4787C62.036 17.1807 61.9675 20.4156 61.3986 23.9062Z" fill="#61DAFB"/>
</svg>
